<?xml version="1.0" encoding="iso-8859-1"?>
<!-- Generator: Adobe Illustrator 17.1.0, SVG Export Plug-In . SVG Version: 6.00 Build 0)  -->
<!DOCTYPE svg PUBLIC "-//W3C//DTD SVG 1.1//EN" "http://www.w3.org/Graphics/SVG/1.1/DTD/svg11.dtd">
<svg version="1.1" id="Capa_1" xmlns="http://www.w3.org/2000/svg" xmlns:xlink="http://www.w3.org/1999/xlink" x="0px" y="0px"
	 viewBox="0 0 91.297 91.297" style="enable-background:new 0 0 91.297 91.297;" xml:space="preserve">
<g>
	<path d="M73.721,41.735l-8.132,1.305c-0.633,0.1-1.322-0.34-1.517-0.912l-5.15-15.065c-0.047-0.136-0.115-0.245-0.175-0.365
		c-0.049-0.12-0.093-0.241-0.158-0.355c-0.395-0.699-1.036-1.202-1.806-1.417l-6.15-1.711c-0.028-0.008-0.056-0.007-0.084-0.014
		l-2.962-0.816c-1.361-0.375-3.298,0.047-4.374,0.933l-12.058,9.927c-1.139,0.937-1.754,2.792-1.401,4.225l3.385,13.734
		c0.347,1.408,1.713,2.814,3.109,3.202l0.128,0.036l-4.92,12.273c-0.434,1.082-1.752,2.434-2.823,2.895l-12.365,5.322
		c-0.924,0.397-1.566,1.125-1.763,1.998c-0.196,0.872,0.072,1.806,0.736,2.561l1.257,1.429c0.823,0.935,2.185,1.516,3.554,1.516
		c0.611,0,1.183-0.112,1.698-0.334l12.364-5.322c1.542-0.664,3.279-2.387,3.956-3.922l4.531-10.281l3.417,6.243
		c0.561,1.024,0.776,2.91,0.461,4.035l-4.11,14.671c-0.269,0.96-0.111,1.923,0.435,2.642c0.545,0.719,1.43,1.131,2.427,1.131h1.902
		c1.883,0,3.756-1.42,4.264-3.234l4.11-14.671c0.44-1.572,0.369-4.013-0.164-5.557l-4.086-11.853l4.462-16.041l2.878,8.707
		c0.439,1.328,1.792,2.292,3.215,2.292h0c0.166,0,0.332-0.013,0.496-0.04l11.729-1.902c1.578-0.256,2.814-1.709,2.814-3.308v-1.284
		C76.854,42.707,75.463,41.454,73.721,41.735z M37.287,39.356c-0.187-0.652,0.145-1.605,0.695-2l6.091-4.37l-4.757,13.451
		L37.287,39.356z"/>
	<path d="M56.019,20.338c5.607,0,10.169-4.562,10.169-10.169S61.626,0,56.019,0c-5.607,0-10.168,4.562-10.168,10.169
		S50.412,20.338,56.019,20.338z"/>
</g>
<g>
</g>
<g>
</g>
<g>
</g>
<g>
</g>
<g>
</g>
<g>
</g>
<g>
</g>
<g>
</g>
<g>
</g>
<g>
</g>
<g>
</g>
<g>
</g>
<g>
</g>
<g>
</g>
<g>
</g>
</svg>
